<svg width="64" height="64" viewBox="0 0 64 64" fill="none" xmlns="http://www.w3.org/2000/svg">
<g id="Internet">
<path id="Vector" d="M3.99805 3.99792V23.9979H31.998V3.99792H3.99805ZM5.99805 5.99792H29.998V21.9979H5.99805V5.99792Z" fill="#2B4255"/>
<path id="Vector_2" fill-rule="evenodd" clip-rule="evenodd" d="M13.998 23.7999V28.2001H15.998V23.7999H13.998ZM19.998 23.7999V28.2001H21.998V23.7999H19.998Z" fill="#2B4255"/>
<path id="Vector_3" fill-rule="evenodd" clip-rule="evenodd" d="M12.0996 27.9979V29.9979H24.0996V27.9979H12.0996Z" fill="#2B4255"/>
<path id="Vector_4" d="M29.998 33.9979V53.9979H57.998V33.9979H29.998ZM31.998 35.9979H55.998V51.9979H31.998V35.9979Z" fill="#2B4255"/>
<path id="Vector_5" fill-rule="evenodd" clip-rule="evenodd" d="M39.998 53.7999V58.2001H41.998V53.7999H39.998ZM45.998 53.7999V58.2001H47.998V53.7999H45.998Z" fill="#2B4255"/>
<path id="Vector_6" fill-rule="evenodd" clip-rule="evenodd" d="M38.0996 57.9979V59.9979H50.0996V57.9979H38.0996Z" fill="#2B4255"/>
<path id="Vector_7" d="M8 8H28V20H8V8ZM34 38H54V50H34V38Z" fill="#F8B84E"/>
<path id="Vector_8" fill-rule="evenodd" clip-rule="evenodd" d="M33.9688 16.9979V18.9979H41.9688V16.9979H33.9688Z" fill="#2B4255"/>
<path id="Vector_9" d="M51 18C51 18.7956 50.6839 19.5587 50.1213 20.1213C49.5587 20.6839 48.7956 21 48 21C47.2044 21 46.4413 20.6839 45.8787 20.1213C45.3161 19.5587 45 18.7956 45 18C45 17.2044 45.3161 16.4413 45.8787 15.8787C46.4413 15.3161 47.2044 15 48 15C48.7956 15 49.5587 15.3161 50.1213 15.8787C50.6839 16.4413 51 17.2044 51 18Z" fill="#F8B84E"/>
<path id="Vector_10" fill-rule="evenodd" clip-rule="evenodd" d="M46.998 23.9979V31.9979H48.998V23.9979H46.998ZM19.998 42.9979V44.9979H27.998V42.9979H19.998Z" fill="#2B4255"/>
<path id="Vector_11" d="M17 44C17 44.7956 16.6839 45.5587 16.1213 46.1213C15.5587 46.6839 14.7956 47 14 47C13.2044 47 12.4413 46.6839 11.8787 46.1213C11.3161 45.5587 11 44.7956 11 44C11 43.2044 11.3161 42.4413 11.8787 41.8787C12.4413 41.3161 13.2044 41 14 41C14.7956 41 15.5587 41.3161 16.1213 41.8787C16.6839 42.4413 17 43.2044 17 44Z" fill="#F8B84E"/>
<path id="Vector_12" fill-rule="evenodd" clip-rule="evenodd" d="M12.998 31.9979V39.9979H14.998V31.9979H12.998Z" fill="#2B4255"/>
</g>
</svg>
