<svg width="48" height="48" viewBox="0 0 48 48" fill="none" xmlns="http://www.w3.org/2000/svg">
<rect width="48" height="48" fill="#1E1E1E"/>
<path d="M-1748 -386C-1748 -387.105 -1747.1 -388 -1746 -388H2570C2571.1 -388 2572 -387.105 2572 -386V1597C2572 1598.1 2571.1 1599 2570 1599H-1746C-1747.1 1599 -1748 1598.1 -1748 1597V-386Z" fill="#404040"/>
<path d="M-1746 -387H2570V-389H-1746V-387ZM2571 -386V1597H2573V-386H2571ZM2570 1598H-1746V1600H2570V1598ZM-1747 1597V-386H-1749V1597H-1747ZM-1746 1598C-1746.55 1598 -1747 1597.55 -1747 1597H-1749C-1749 1598.66 -1747.66 1600 -1746 1600V1598ZM2571 1597C2571 1597.55 2570.55 1598 2570 1598V1600C2571.66 1600 2573 1598.66 2573 1597H2571ZM2570 -387C2570.55 -387 2571 -386.552 2571 -386H2573C2573 -387.657 2571.66 -389 2570 -389V-387ZM-1746 -389C-1747.66 -389 -1749 -387.657 -1749 -386H-1747C-1747 -386.552 -1746.55 -387 -1746 -387V-389Z" fill="white" fill-opacity="0.1"/>
<g clip-path="url(#clip0_125_8199)">
<rect width="360" height="800" transform="translate(-156 -308)" fill="#F9FAFB"/>
<rect x="-140" y="-24" width="328" height="48" rx="4" fill="white"/>
<rect x="-139.5" y="-23.5" width="327" height="47" rx="3.5" stroke="black" stroke-opacity="0.2"/>
<path d="M-127.115 5V-5.18182H-120.254V-3.40696H-124.962V-0.980824H-120.607V0.794034H-124.962V3.22514H-120.234V5H-127.115ZM-116.465 0.585227V5H-118.583V-2.63636H-116.564V-1.28906H-116.475C-116.306 -1.73319 -116.022 -2.08452 -115.624 -2.34304C-115.227 -2.60488 -114.744 -2.7358 -114.178 -2.7358C-113.647 -2.7358 -113.185 -2.61979 -112.791 -2.38778C-112.396 -2.15578 -112.09 -1.82434 -111.871 -1.39347C-111.652 -0.965909 -111.543 -0.455493 -111.543 0.137784V5H-113.661V0.515625C-113.657 0.0482954 -113.777 -0.316288 -114.019 -0.578125C-114.261 -0.843277 -114.594 -0.975852 -115.018 -0.975852C-115.303 -0.975852 -115.555 -0.914536 -115.774 -0.791904C-115.989 -0.669271 -116.158 -0.490294 -116.281 -0.254972C-116.4 -0.022964 -116.461 0.257102 -116.465 0.585227ZM-105.812 -2.63636V-1.04545H-110.411V-2.63636H-105.812ZM-109.366 -4.46591H-107.249V2.65341C-107.249 2.84896 -107.219 3.00142 -107.159 3.1108C-107.099 3.21686 -107.017 3.29143 -106.911 3.33452C-106.801 3.3776 -106.675 3.39915 -106.533 3.39915C-106.433 3.39915 -106.334 3.39086 -106.234 3.37429C-106.135 3.3544 -106.059 3.33949 -106.006 3.32955L-105.673 4.90554C-105.779 4.93868 -105.928 4.9768 -106.12 5.01989C-106.312 5.06629 -106.546 5.09446 -106.821 5.1044C-107.331 5.12429 -107.779 5.05634 -108.163 4.90057C-108.545 4.74479 -108.841 4.50284 -109.053 4.17472C-109.265 3.84659 -109.37 3.43229 -109.366 2.93182V-4.46591ZM-101.034 5.14915C-101.82 5.14915 -102.496 4.99006 -103.062 4.67188C-103.626 4.35038 -104.06 3.89631 -104.365 3.30966C-104.67 2.7197 -104.822 2.02202 -104.822 1.21662C-104.822 0.431108 -104.67 -0.258286 -104.365 -0.851562C-104.06 -1.44484 -103.631 -1.9072 -103.077 -2.23864C-102.521 -2.57008 -101.868 -2.7358 -101.119 -2.7358C-100.615 -2.7358 -100.146 -2.65459 -99.7116 -2.49219C-99.2741 -2.3331 -98.893 -2.0928 -98.5682 -1.77131C-98.2401 -1.44981 -97.9848 -1.04545 -97.8026 -0.558239C-97.6203 -0.0743373 -97.5291 0.492424 -97.5291 1.14205V1.72372H-103.977V0.411221H-99.5227C-99.5227 0.106297 -99.589 -0.163826 -99.7216 -0.399148C-99.8542 -0.63447 -100.038 -0.818419 -100.273 -0.950994C-100.505 -1.08688 -100.776 -1.15483 -101.084 -1.15483C-101.405 -1.15483 -101.69 -1.08026 -101.939 -0.931108C-102.184 -0.785275 -102.376 -0.588068 -102.516 -0.339489C-102.655 -0.0942237 -102.726 0.179214 -102.729 0.480824V1.72869C-102.729 2.10653 -102.66 2.433 -102.521 2.7081C-102.378 2.98319 -102.178 3.19531 -101.919 3.34446C-101.661 3.49361 -101.354 3.56818 -100.999 3.56818C-100.764 3.56818 -100.549 3.53504 -100.353 3.46875C-100.157 3.40246 -99.9901 3.30303 -99.8509 3.17045C-99.7116 3.03788 -99.6056 2.87547 -99.5327 2.68324L-97.5739 2.8125C-97.6733 3.28314 -97.8771 3.69413 -98.1854 4.04545C-98.4903 4.39347 -98.8847 4.66525 -99.3686 4.8608C-99.8492 5.05303 -100.404 5.14915 -101.034 5.14915ZM-96.147 5V-2.63636H-94.0938V-1.30398H-94.0142C-93.875 -1.77794 -93.6413 -2.13589 -93.3132 -2.37784C-92.9851 -2.62311 -92.6072 -2.74574 -92.1797 -2.74574C-92.0736 -2.74574 -91.9593 -2.73911 -91.8366 -2.72585C-91.714 -2.71259 -91.6063 -2.69437 -91.5135 -2.67117V-0.791904C-91.6129 -0.821733 -91.7505 -0.848248 -91.9261 -0.871449C-92.1018 -0.89465 -92.2625 -0.90625 -92.4084 -0.90625C-92.7199 -0.90625 -92.9983 -0.838305 -93.2436 -0.702415C-93.4856 -0.569839 -93.6778 -0.384233 -93.8203 -0.145597C-93.9595 0.0930397 -94.0291 0.368134 -94.0291 0.679688V5H-96.147ZM-87.1783 5V-2.63636H-85.1598V-1.28906H-85.0703C-84.9112 -1.73651 -84.6461 -2.08949 -84.2749 -2.34801C-83.9036 -2.60653 -83.4595 -2.7358 -82.9425 -2.7358C-82.4188 -2.7358 -81.973 -2.60488 -81.6051 -2.34304C-81.2372 -2.08452 -80.992 -1.73319 -80.8693 -1.28906H-80.7898C-80.634 -1.72656 -80.3523 -2.07623 -79.9446 -2.33807C-79.5336 -2.60322 -79.0481 -2.7358 -78.4879 -2.7358C-77.7753 -2.7358 -77.197 -2.50876 -76.7528 -2.05469C-76.3054 -1.60393 -76.0817 -0.964252 -76.0817 -0.135654V5H-78.1946V0.28196C-78.1946 -0.142282 -78.3073 -0.460464 -78.5327 -0.672585C-78.758 -0.884706 -79.0398 -0.990767 -79.3778 -0.990767C-79.7623 -0.990767 -80.0623 -0.868135 -80.2777 -0.622869C-80.4931 -0.380919 -80.6009 -0.0610798 -80.6009 0.336648V5H-82.6541V0.237216C-82.6541 -0.137311 -82.7618 -0.435606 -82.9773 -0.657671C-83.1894 -0.879735 -83.4695 -0.990767 -83.8175 -0.990767C-84.0528 -0.990767 -84.2649 -0.931108 -84.4538 -0.81179C-84.6394 -0.695786 -84.7869 -0.531724 -84.8963 -0.319602C-85.0057 -0.110796 -85.0604 0.13447 -85.0604 0.416193V5H-87.1783ZM-70.9585 5.14915C-71.7307 5.14915 -72.3986 4.98509 -72.962 4.65696C-73.5221 4.32552 -73.9547 3.86482 -74.2596 3.27486C-74.5645 2.68158 -74.717 1.99384 -74.717 1.21165C-74.717 0.422822 -74.5645 -0.266572 -74.2596 -0.856534C-73.9547 -1.44981 -73.5221 -1.91051 -72.962 -2.23864C-72.3986 -2.57008 -71.7307 -2.7358 -70.9585 -2.7358C-70.1862 -2.7358 -69.52 -2.57008 -68.9599 -2.23864C-68.3964 -1.91051 -67.9622 -1.44981 -67.6573 -0.856534C-67.3524 -0.266572 -67.1999 0.422822 -67.1999 1.21165C-67.1999 1.99384 -67.3524 2.68158 -67.6573 3.27486C-67.9622 3.86482 -68.3964 4.32552 -68.9599 4.65696C-69.52 4.98509 -70.1862 5.14915 -70.9585 5.14915ZM-70.9485 3.50852C-70.5972 3.50852 -70.3039 3.40909 -70.0685 3.21023C-69.8332 3.00805 -69.6559 2.73295 -69.5366 2.38494C-69.4139 2.03693 -69.3526 1.64086 -69.3526 1.19673C-69.3526 0.752604 -69.4139 0.356534 -69.5366 0.00852269C-69.6559 -0.339489 -69.8332 -0.614583 -70.0685 -0.816762C-70.3039 -1.01894 -70.5972 -1.12003 -70.9485 -1.12003C-71.3031 -1.12003 -71.6014 -1.01894 -71.8434 -0.816762C-72.082 -0.614583 -72.2627 -0.339489 -72.3853 0.00852269C-72.5046 0.356534 -72.5643 0.752604 -72.5643 1.19673C-72.5643 1.64086 -72.5046 2.03693 -72.3853 2.38494C-72.2627 2.73295 -72.082 3.00805 -71.8434 3.21023C-71.6014 3.40909 -71.3031 3.50852 -70.9485 3.50852ZM-65.783 5V-5.18182H-63.6651V-1.35369H-63.6005C-63.5077 -1.55919 -63.3735 -1.76799 -63.1978 -1.98011C-63.0188 -2.19555 -62.7868 -2.37453 -62.5018 -2.51705C-62.2134 -2.66288 -61.8555 -2.7358 -61.4279 -2.7358C-60.8711 -2.7358 -60.3574 -2.58996 -59.8867 -2.2983C-59.4161 -2.00994 -59.0399 -1.5741 -58.7582 -0.990767C-58.4764 -0.410748 -58.3356 0.316761 -58.3356 1.19176C-58.3356 2.04356 -58.4731 2.76278 -58.7482 3.34943C-59.02 3.93277 -59.3912 4.37524 -59.8619 4.67685C-60.3292 4.97514 -60.8529 5.12429 -61.4329 5.12429C-61.8439 5.12429 -62.1935 5.05634 -62.4819 4.92045C-62.7669 4.78456 -63.0006 4.61387 -63.1829 4.40838C-63.3652 4.19957 -63.5044 3.98911 -63.6005 3.77699H-63.695V5H-65.783ZM-63.7099 1.18182C-63.7099 1.63589 -63.6469 2.03196 -63.521 2.37003C-63.395 2.7081 -63.2127 2.97159 -62.9741 3.16051C-62.7354 3.34612 -62.4454 3.43892 -62.104 3.43892C-61.7594 3.43892 -61.4677 3.34446 -61.229 3.15554C-60.9904 2.9633 -60.8098 2.69815 -60.6871 2.36009C-60.5612 2.0187 -60.4982 1.62595 -60.4982 1.18182C-60.4982 0.741004 -60.5595 0.353219 -60.6822 0.0184658C-60.8048 -0.316288 -60.9854 -0.578125 -61.2241 -0.767046C-61.4627 -0.955966 -61.756 -1.05043 -62.104 -1.05043C-62.4487 -1.05043 -62.7404 -0.959281 -62.979 -0.776989C-63.2144 -0.594697 -63.395 -0.336175 -63.521 -0.0014208C-63.6469 0.333333 -63.7099 0.727746 -63.7099 1.18182ZM-56.9224 5V-2.63636H-54.8045V5H-56.9224ZM-55.8585 -3.62074C-56.1734 -3.62074 -56.4435 -3.72514 -56.6689 -3.93395C-56.8909 -4.14607 -57.002 -4.39962 -57.002 -4.6946C-57.002 -4.98627 -56.8909 -5.23651 -56.6689 -5.44531C-56.4435 -5.65743 -56.1734 -5.76349 -55.8585 -5.76349C-55.5436 -5.76349 -55.2752 -5.65743 -55.0531 -5.44531C-54.8277 -5.23651 -54.715 -4.98627 -54.715 -4.6946C-54.715 -4.39962 -54.8277 -4.14607 -55.0531 -3.93395C-55.2752 -3.72514 -55.5436 -3.62074 -55.8585 -3.62074ZM-50.9901 -5.18182V5H-53.108V-5.18182H-50.9901ZM-45.8134 5.14915C-46.5989 5.14915 -47.275 4.99006 -47.8418 4.67188C-48.4052 4.35038 -48.8394 3.89631 -49.1444 3.30966C-49.4493 2.7197 -49.6017 2.02202 -49.6017 1.21662C-49.6017 0.431108 -49.4493 -0.258286 -49.1444 -0.851562C-48.8394 -1.44484 -48.4102 -1.9072 -47.8567 -2.23864C-47.2999 -2.57008 -46.647 -2.7358 -45.8979 -2.7358C-45.3941 -2.7358 -44.9251 -2.65459 -44.4909 -2.49219C-44.0534 -2.3331 -43.6723 -2.0928 -43.3475 -1.77131C-43.0194 -1.44981 -42.7641 -1.04545 -42.5819 -0.558239C-42.3996 -0.0743373 -42.3084 0.492424 -42.3084 1.14205V1.72372H-48.7566V0.411221H-44.302C-44.302 0.106297 -44.3683 -0.163826 -44.5009 -0.399148C-44.6335 -0.63447 -44.8174 -0.818419 -45.0527 -0.950994C-45.2847 -1.08688 -45.5549 -1.15483 -45.8631 -1.15483C-46.1846 -1.15483 -46.4696 -1.08026 -46.7182 -0.931108C-46.9635 -0.785275 -47.1557 -0.588068 -47.2949 -0.339489C-47.4341 -0.0942237 -47.5054 0.179214 -47.5087 0.480824V1.72869C-47.5087 2.10653 -47.4391 2.433 -47.2999 2.7081C-47.1574 2.98319 -46.9569 3.19531 -46.6983 3.34446C-46.4398 3.49361 -46.1332 3.56818 -45.7786 3.56818C-45.5433 3.56818 -45.3278 3.53504 -45.1323 3.46875C-44.9367 3.40246 -44.7694 3.30303 -44.6301 3.17045C-44.4909 3.03788 -44.3849 2.87547 -44.312 2.68324L-42.3532 2.8125C-42.4526 3.28314 -42.6564 3.69413 -42.9647 4.04545C-43.2696 4.39347 -43.664 4.66525 -44.1479 4.8608C-44.6285 5.05303 -45.1837 5.14915 -45.8134 5.14915ZM-29.13 -5.18182V5H-30.9893L-35.419 -1.40838H-35.4936V5H-37.6463V-5.18182H-35.7571L-31.3622 1.22159H-31.2727V-5.18182H-29.13ZM-22.4941 1.74858V-2.63636H-20.3762V5H-22.4096V3.61293H-22.4892C-22.6615 4.06037 -22.9482 4.41998 -23.3493 4.69176C-23.747 4.96354 -24.2325 5.09943 -24.8059 5.09943C-25.3163 5.09943 -25.7654 4.98343 -26.1532 4.75142C-26.541 4.51941 -26.8443 4.18963 -27.063 3.76207C-27.2785 3.33452 -27.3878 2.82244 -27.3912 2.22585V-2.63636H-25.2733V1.84801C-25.2699 2.29877 -25.149 2.65507 -24.9103 2.9169C-24.6717 3.17874 -24.3519 3.30966 -23.9508 3.30966C-23.6956 3.30966 -23.457 3.25166 -23.2349 3.13565C-23.0128 3.01634 -22.8339 2.84067 -22.698 2.60866C-22.5588 2.37666 -22.4908 2.08996 -22.4941 1.74858ZM-18.6822 5V-2.63636H-16.6637V-1.28906H-16.5742C-16.4151 -1.73651 -16.15 -2.08949 -15.7788 -2.34801C-15.4076 -2.60653 -14.9634 -2.7358 -14.4464 -2.7358C-13.9227 -2.7358 -13.4769 -2.60488 -13.109 -2.34304C-12.7411 -2.08452 -12.4959 -1.73319 -12.3732 -1.28906H-12.2937C-12.1379 -1.72656 -11.8562 -2.07623 -11.4485 -2.33807C-11.0375 -2.60322 -10.552 -2.7358 -9.99183 -2.7358C-9.27924 -2.7358 -8.70088 -2.50876 -8.25675 -2.05469C-7.8093 -1.60393 -7.58558 -0.964252 -7.58558 -0.135654V5H-9.69851V0.28196C-9.69851 -0.142282 -9.8112 -0.460464 -10.0366 -0.672585C-10.262 -0.884706 -10.5437 -0.990767 -10.8817 -0.990767C-11.2662 -0.990767 -11.5662 -0.868135 -11.7816 -0.622869C-11.997 -0.380919 -12.1048 -0.0610798 -12.1048 0.336648V5H-14.158V0.237216C-14.158 -0.137311 -14.2657 -0.435606 -14.4812 -0.657671C-14.6933 -0.879735 -14.9734 -0.990767 -15.3214 -0.990767C-15.5567 -0.990767 -15.7688 -0.931108 -15.9577 -0.81179C-16.1433 -0.695786 -16.2908 -0.531724 -16.4002 -0.319602C-16.5096 -0.110796 -16.5643 0.13447 -16.5643 0.416193V5H-18.6822ZM-5.87287 5V-5.18182H-3.75497V-1.35369H-3.69034C-3.59754 -1.55919 -3.4633 -1.76799 -3.28764 -1.98011C-3.10866 -2.19555 -2.87666 -2.37453 -2.59162 -2.51705C-2.30327 -2.66288 -1.94531 -2.7358 -1.51776 -2.7358C-0.960937 -2.7358 -0.447206 -2.58996 0.0234375 -2.2983C0.494081 -2.00994 0.870265 -1.5741 1.15199 -0.990767C1.43371 -0.410748 1.57457 0.316761 1.57457 1.19176C1.57457 2.04356 1.43703 2.76278 1.16193 3.34943C0.890152 3.93277 0.51894 4.37524 0.0482958 4.67685C-0.419034 4.97514 -0.942708 5.12429 -1.52273 5.12429C-1.93371 5.12429 -2.28338 5.05634 -2.57173 4.92045C-2.85677 4.78456 -3.09044 4.61387 -3.27273 4.40838C-3.45502 4.19957 -3.59422 3.98911 -3.69034 3.77699H-3.7848V5H-5.87287ZM-3.79972 1.18182C-3.79972 1.63589 -3.73674 2.03196 -3.6108 2.37003C-3.48485 2.7081 -3.30256 2.97159 -3.06392 3.16051C-2.82528 3.34612 -2.53527 3.43892 -2.19389 3.43892C-1.84919 3.43892 -1.55753 3.34446 -1.31889 3.15554C-1.08026 2.9633 -0.899621 2.69815 -0.776988 2.36009C-0.651042 2.0187 -0.588068 1.62595 -0.588068 1.18182C-0.588068 0.741004 -0.649384 0.353219 -0.772017 0.0184658C-0.894649 -0.316288 -1.07528 -0.578125 -1.31392 -0.767046C-1.55256 -0.955966 -1.84588 -1.05043 -2.19389 -1.05043C-2.53859 -1.05043 -2.83026 -0.959281 -3.06889 -0.776989C-3.30421 -0.594697 -3.48485 -0.336175 -3.6108 -0.0014208C-3.73674 0.333333 -3.79972 0.727746 -3.79972 1.18182ZM6.46786 5.14915C5.68235 5.14915 5.00621 4.99006 4.43945 4.67188C3.87601 4.35038 3.44182 3.89631 3.1369 3.30966C2.83197 2.7197 2.67951 2.02202 2.67951 1.21662C2.67951 0.431108 2.83197 -0.258286 3.1369 -0.851562C3.44182 -1.44484 3.87103 -1.9072 4.42454 -2.23864C4.98136 -2.57008 5.63429 -2.7358 6.38335 -2.7358C6.88713 -2.7358 7.35612 -2.65459 7.79031 -2.49219C8.22781 -2.3331 8.60896 -2.0928 8.93377 -1.77131C9.2619 -1.44981 9.5171 -1.04545 9.6994 -0.558239C9.88169 -0.0743373 9.97283 0.492424 9.97283 1.14205V1.72372H3.52468V0.411221H7.97923C7.97923 0.106297 7.91294 -0.163826 7.78036 -0.399148C7.64779 -0.63447 7.46384 -0.818419 7.22852 -0.950994C6.99651 -1.08688 6.72639 -1.15483 6.41815 -1.15483C6.09665 -1.15483 5.81161 -1.08026 5.56303 -0.931108C5.31777 -0.785275 5.12553 -0.588068 4.98633 -0.339489C4.84712 -0.0942237 4.77586 0.179214 4.77255 0.480824V1.72869C4.77255 2.10653 4.84215 2.433 4.98136 2.7081C5.12388 2.98319 5.3244 3.19531 5.58292 3.34446C5.84144 3.49361 6.14802 3.56818 6.50266 3.56818C6.73799 3.56818 6.95342 3.53504 7.14897 3.46875C7.34452 3.40246 7.5119 3.30303 7.6511 3.17045C7.79031 3.03788 7.89637 2.87547 7.96928 2.68324L9.92809 2.8125C9.82866 3.28314 9.62482 3.69413 9.31658 4.04545C9.01166 4.39347 8.61725 4.66525 8.13335 4.8608C7.65276 5.05303 7.0976 5.14915 6.46786 5.14915ZM11.3549 5V-2.63636H13.4082V-1.30398H13.4877C13.627 -1.77794 13.8606 -2.13589 14.1887 -2.37784C14.5169 -2.62311 14.8947 -2.74574 15.3223 -2.74574C15.4283 -2.74574 15.5427 -2.73911 15.6653 -2.72585C15.7879 -2.71259 15.8957 -2.69437 15.9885 -2.67117V-0.791904C15.889 -0.821733 15.7515 -0.848248 15.5758 -0.871449C15.4002 -0.89465 15.2394 -0.90625 15.0936 -0.90625C14.782 -0.90625 14.5036 -0.838305 14.2583 -0.702415C14.0164 -0.569839 13.8242 -0.384233 13.6816 -0.145597C13.5424 0.0930397 13.4728 0.368134 13.4728 0.679688V5H11.3549Z" fill="black" fill-opacity="0.4"/>
<g filter="url(#filter0_b_125_8199)">
<rect x="-156" y="-308" width="360" height="800" fill="black" fill-opacity="0.5"/>
</g>
<rect x="-132" y="-24" width="312" height="232" rx="16" fill="white"/>
<path d="M24.2215 46.8353C12.7832 46.8353 0.442871 39.6608 0.442871 23.9177C0.442871 8.17458 12.7832 1 24.2215 1C30.5761 1 36.4388 3.09088 40.7845 6.90366C45.4992 11.0854 48.0001 16.9891 48.0001 23.9177C48.0001 30.8463 45.4992 36.7089 40.7845 40.8907C36.4388 44.7035 30.5351 46.8353 24.2215 46.8353Z" fill="url(#paint0_radial_125_8199)"/>
<path d="M43.8553 10.2942C46.0405 13.8199 47.1802 18.0181 47.1802 22.6877C47.1802 29.6163 44.6793 35.479 39.9646 39.6607C35.6189 43.4735 29.7152 45.6054 23.4016 45.6054C15.9974 45.6054 8.23246 42.5921 3.64893 36.2005C8.06027 43.4407 16.3582 46.8353 24.2215 46.8353C30.5352 46.8353 36.4388 44.7034 40.7846 40.8907C45.4993 36.7089 48.0001 30.8463 48.0001 23.9177C48.0001 18.6946 46.5775 14.0536 43.8553 10.2942Z" fill="#EB8F00"/>
<path d="M24.3855 33.8596C28.8214 33.8596 31.6953 37.1066 32.4415 38.603C32.7285 39.181 32.7449 39.6607 32.4989 39.8862C32.2406 40.0543 31.9044 40.0543 31.6461 39.8862C31.519 39.8247 31.3919 39.755 31.2772 39.673C27.1569 36.7212 21.6181 36.7212 17.4979 39.673C17.3831 39.755 17.2601 39.8247 17.1289 39.8862C16.8706 40.0584 16.5344 40.0584 16.2761 39.8862C16.0301 39.6607 16.0465 39.181 16.3335 38.603C17.0756 37.1107 19.9495 33.8596 24.3855 33.8596Z" fill="#422B0D"/>
<path d="M9.37626 14.435C8.47432 14.5948 8.42922 15.9068 9.41316 15.9519C11.586 15.9847 13.6851 15.1811 15.284 13.7093C15.8908 13.1845 16.4074 12.5655 16.805 11.8685C17.0428 11.5282 16.9608 11.0609 16.6246 10.819C16.2885 10.5771 15.817 10.6632 15.5751 10.9994L15.5341 11.0404C13.9229 12.8401 11.7541 14.0332 9.37626 14.435Z" fill="#422B0D"/>
<path d="M33.4535 11.0526L33.4125 11.0116C33.1747 10.6714 32.7032 10.5894 32.363 10.8272C32.0227 11.0649 31.9407 11.5364 32.1826 11.8767C32.5843 12.5695 33.1009 13.1886 33.7118 13.7093C35.3107 15.1811 37.4098 15.9806 39.5826 15.9437C40.5666 15.8986 40.5215 14.5866 39.6154 14.4267C37.2376 14.0291 35.0688 12.8401 33.4535 11.0526Z" fill="#422B0D"/>
<path d="M6.14964 41.9977C2.68124 41.9977 0 38.6317 0 35.7496C0 33.7243 0.906047 31.3752 2.18927 28.12C2.34916 27.6403 2.56235 27.1565 2.77554 26.6235C3.3864 25.0984 3.92347 23.4462 4.74342 22.0154C5.1329 21.3185 6.01435 21.0725 6.70721 21.4619C6.93679 21.5931 7.12948 21.7817 7.26068 22.0154C8.02323 23.4216 8.548 24.9426 9.33926 26.7178C11.5818 31.7359 12.2091 33.7653 12.2091 35.7906C12.287 38.6481 9.56474 41.9977 6.14964 41.9977Z" fill="url(#paint1_radial_125_8199)"/>
<path d="M9.90122 38.1643C9.11816 39.3942 7.33887 39.1483 7.33887 37.1353C7.33887 35.8479 7.60125 29.2391 8.70819 30.1657C10.5039 31.6703 11.0164 36.4506 9.90122 38.1643Z" fill="#81D4FA"/>
<path d="M16.4605 20.6543C14.7427 20.6543 13.1807 22.1056 13.1807 24.5162C13.1807 26.9269 14.7427 28.3741 16.4605 28.3741C18.1783 28.3741 19.7403 26.9228 19.7403 24.5162C19.7403 22.1097 18.1783 20.6543 16.4605 20.6543Z" fill="#422B0D"/>
<path d="M16.301 22.2655C15.7188 21.9867 15.0178 22.2327 14.7349 22.8149C14.5176 23.2699 14.616 23.8152 14.9809 24.1678C15.563 24.4466 16.2641 24.2006 16.547 23.6184C16.7642 23.1633 16.6659 22.6181 16.301 22.2655Z" fill="#896024"/>
<path d="M32.1753 20.6543C30.4575 20.6543 28.8955 22.1056 28.8955 24.5162C28.8955 26.9269 30.4575 28.3741 32.1753 28.3741C33.8931 28.3741 35.4551 26.9228 35.4551 24.5162C35.4551 22.1097 33.9013 20.6543 32.1753 20.6543Z" fill="#422B0D"/>
<path d="M32.0231 22.2655C31.441 21.9867 30.7399 22.2327 30.457 22.8149C30.2397 23.2699 30.3381 23.8152 30.703 24.1678C31.2852 24.4466 31.9862 24.2006 32.2691 23.6184C32.4864 23.1633 32.388 22.6181 32.0231 22.2655Z" fill="#896024"/>
</g>
<defs>
<filter id="filter0_b_125_8199" x="-160" y="-312" width="368" height="808" filterUnits="userSpaceOnUse" color-interpolation-filters="sRGB">
<feFlood flood-opacity="0" result="BackgroundImageFix"/>
<feGaussianBlur in="BackgroundImageFix" stdDeviation="2"/>
<feComposite in2="SourceAlpha" operator="in" result="effect1_backgroundBlur_125_8199"/>
<feBlend mode="normal" in="SourceGraphic" in2="effect1_backgroundBlur_125_8199" result="shape"/>
</filter>
<radialGradient id="paint0_radial_125_8199" cx="0" cy="0" r="1" gradientUnits="userSpaceOnUse" gradientTransform="translate(24.2215 23.9177) scale(23.3521 23.3521)">
<stop offset="0.5" stop-color="#FDE030"/>
<stop offset="0.92" stop-color="#F7C02B"/>
<stop offset="1" stop-color="#F4A223"/>
</radialGradient>
<radialGradient id="paint1_radial_125_8199" cx="0" cy="0" r="1" gradientUnits="userSpaceOnUse" gradientTransform="translate(6.58832 23.9343) scale(13.6932 21.0875)">
<stop offset="0.46" stop-color="#29B6F6"/>
<stop offset="1" stop-color="#1E88E5"/>
</radialGradient>
<clipPath id="clip0_125_8199">
<rect width="360" height="800" fill="white" transform="translate(-156 -308)"/>
</clipPath>
</defs>
</svg>
